<svg width="91" height="40" viewBox="0 0 91 40" fill="none" xmlns="http://www.w3.org/2000/svg">
  <path d="M44.5 20C44.5 31.0457 35.5457 40 24.5 40C13.4543 40 4.5 31.0457 4.5 20C4.5 8.9543 13.4543 0 24.5 0C35.5457 0 44.5 8.9543 44.5 20Z" fill="#002F34"/>
  <path d="M24.5 30C30.0228 30 34.5 25.5228 34.5 20C34.5 14.4772 30.0228 10 24.5 10C18.9772 10 14.5 14.4772 14.5 20C14.5 25.5228 18.9772 30 24.5 30Z" fill="#23E5DB"/>
  <path d="M72.1818 10.9091H65.7273L57.5 30H63.7273L65.2727 25.4545H72.6364L74.1818 30H80.5L72.1818 10.9091ZM66.8182 20.9091L69 15.4545L71.1818 20.9091H66.8182Z" fill="white"/>
  <path d="M56.4091 21.6364C56.4091 16.7273 52.5909 10.7273 45.9545 10.7273C39.3182 10.7273 35.5 16.7273 35.5 21.6364C35.5 26.5455 39.3182 32.5455 45.9545 32.5455C52.5909 32.5455 56.4091 26.5455 56.4091 21.6364ZM45.9545 27.3182C43.0455 27.3182 40.7273 24.8182 40.7273 21.6364C40.7273 18.4545 43.0455 15.9545 45.9545 15.9545C48.8636 15.9545 51.1818 18.4545 51.1818 21.6364C51.1818 24.8182 48.8636 27.3182 45.9545 27.3182Z" fill="white"/>
  <path d="M85.4091 10.9091H80.0455V30H90.6364V25.4545H85.4091V10.9091Z" fill="white"/>
</svg>
